<svg width="28" height="28" viewBox="0 0 28 28" fill="none" xmlns="http://www.w3.org/2000/svg">
<path d="M14 4.66669C15.2377 4.66669 16.4247 5.15835 17.2998 6.03352C18.175 6.90869 18.6667 8.09568 18.6667 9.33335C18.6667 10.571 18.175 11.758 17.2998 12.6332C16.4247 13.5084 15.2377 14 14 14C12.7623 14 11.5753 13.5084 10.7002 12.6332C9.82499 11.758 9.33332 10.571 9.33332 9.33335C9.33332 8.09568 9.82499 6.90869 10.7002 6.03352C11.5753 5.15835 12.7623 4.66669 14 4.66669ZM14 7.00002C13.3812 7.00002 12.7877 7.24585 12.3501 7.68344C11.9125 8.12102 11.6667 8.71452 11.6667 9.33335C11.6667 9.95219 11.9125 10.5457 12.3501 10.9833C12.7877 11.4209 13.3812 11.6667 14 11.6667C14.6188 11.6667 15.2123 11.4209 15.6499 10.9833C16.0875 10.5457 16.3333 9.95219 16.3333 9.33335C16.3333 8.71452 16.0875 8.12102 15.6499 7.68344C15.2123 7.24585 14.6188 7.00002 14 7.00002ZM14 15.1667C17.115 15.1667 23.3333 16.7184 23.3333 19.8334V23.3334H4.66666V19.8334C4.66666 16.7184 10.885 15.1667 14 15.1667ZM14 17.3834C10.535 17.3834 6.88332 19.0867 6.88332 19.8334V21.1167H21.1167V19.8334C21.1167 19.0867 17.465 17.3834 14 17.3834Z" fill="white"/>
</svg>
