<svg width="28" height="28" viewBox="0 0 28 28" fill="none" xmlns="http://www.w3.org/2000/svg">
<path d="M10.5 5.83332C10.1906 5.83332 9.89382 5.95624 9.67503 6.17503C9.45624 6.39382 9.33332 6.69057 9.33332 6.99999C9.33332 7.30941 9.45624 7.60616 9.67503 7.82495C9.89382 8.04374 10.1906 8.16666 10.5 8.16666C10.8094 8.16666 11.1062 8.04374 11.3249 7.82495C11.5437 7.60616 11.6667 7.30941 11.6667 6.99999C11.6667 6.69057 11.5437 6.39382 11.3249 6.17503C11.1062 5.95624 10.8094 5.83332 10.5 5.83332ZM7.19832 5.83332C7.43936 5.1502 7.88635 4.55866 8.47769 4.14024C9.06903 3.72183 9.77559 3.49713 10.5 3.49713C11.2244 3.49713 11.931 3.72183 12.5223 4.14024C13.1136 4.55866 13.5606 5.1502 13.8017 5.83332H22.1667C22.4761 5.83332 22.7728 5.95624 22.9916 6.17503C23.2104 6.39382 23.3333 6.69057 23.3333 6.99999C23.3333 7.30941 23.2104 7.60616 22.9916 7.82495C22.7728 8.04374 22.4761 8.16666 22.1667 8.16666H13.8017C13.5606 8.84978 13.1136 9.44132 12.5223 9.85974C11.931 10.2782 11.2244 10.5028 10.5 10.5028C9.77559 10.5028 9.06903 10.2782 8.47769 9.85974C7.88635 9.44132 7.43936 8.84978 7.19832 8.16666H5.83332C5.5239 8.16666 5.22716 8.04374 5.00837 7.82495C4.78957 7.60616 4.66666 7.30941 4.66666 6.99999C4.66666 6.69057 4.78957 6.39382 5.00837 6.17503C5.22716 5.95624 5.5239 5.83332 5.83332 5.83332H7.19832ZM17.5 12.8333C17.1906 12.8333 16.8938 12.9562 16.675 13.175C16.4562 13.3938 16.3333 13.6906 16.3333 14C16.3333 14.3094 16.4562 14.6062 16.675 14.8249C16.8938 15.0437 17.1906 15.1667 17.5 15.1667C17.8094 15.1667 18.1062 15.0437 18.3249 14.8249C18.5437 14.6062 18.6667 14.3094 18.6667 14C18.6667 13.6906 18.5437 13.3938 18.3249 13.175C18.1062 12.9562 17.8094 12.8333 17.5 12.8333ZM14.1983 12.8333C14.4394 12.1502 14.8864 11.5587 15.4777 11.1402C16.069 10.7218 16.7756 10.4971 17.5 10.4971C18.2244 10.4971 18.931 10.7218 19.5223 11.1402C20.1136 11.5587 20.5606 12.1502 20.8017 12.8333H22.1667C22.4761 12.8333 22.7728 12.9562 22.9916 13.175C23.2104 13.3938 23.3333 13.6906 23.3333 14C23.3333 14.3094 23.2104 14.6062 22.9916 14.8249C22.7728 15.0437 22.4761 15.1667 22.1667 15.1667H20.8017C20.5606 15.8498 20.1136 16.4413 19.5223 16.8597C18.931 17.2782 18.2244 17.5028 17.5 17.5028C16.7756 17.5028 16.069 17.2782 15.4777 16.8597C14.8864 16.4413 14.4394 15.8498 14.1983 15.1667H5.83332C5.5239 15.1667 5.22716 15.0437 5.00837 14.8249C4.78957 14.6062 4.66666 14.3094 4.66666 14C4.66666 13.6906 4.78957 13.3938 5.00837 13.175C5.22716 12.9562 5.5239 12.8333 5.83332 12.8333H14.1983ZM10.5 19.8333C10.1906 19.8333 9.89382 19.9562 9.67503 20.175C9.45624 20.3938 9.33332 20.6906 9.33332 21C9.33332 21.3094 9.45624 21.6062 9.67503 21.8249C9.89382 22.0437 10.1906 22.1667 10.5 22.1667C10.8094 22.1667 11.1062 22.0437 11.3249 21.8249C11.5437 21.6062 11.6667 21.3094 11.6667 21C11.6667 20.6906 11.5437 20.3938 11.3249 20.175C11.1062 19.9562 10.8094 19.8333 10.5 19.8333ZM7.19832 19.8333C7.43936 19.1502 7.88635 18.5587 8.47769 18.1402C9.06903 17.7218 9.77559 17.4971 10.5 17.4971C11.2244 17.4971 11.931 17.7218 12.5223 18.1402C13.1136 18.5587 13.5606 19.1502 13.8017 19.8333H22.1667C22.4761 19.8333 22.7728 19.9562 22.9916 20.175C23.2104 20.3938 23.3333 20.6906 23.3333 21C23.3333 21.3094 23.2104 21.6062 22.9916 21.8249C22.7728 22.0437 22.4761 22.1667 22.1667 22.1667H13.8017C13.5606 22.8498 13.1136 23.4413 12.5223 23.8597C11.931 24.2782 11.2244 24.5028 10.5 24.5028C9.77559 24.5028 9.06903 24.2782 8.47769 23.8597C7.88635 23.4413 7.43936 22.8498 7.19832 22.1667H5.83332C5.5239 22.1667 5.22716 22.0437 5.00837 21.8249C4.78957 21.6062 4.66666 21.3094 4.66666 21C4.66666 20.6906 4.78957 20.3938 5.00837 20.175C5.22716 19.9562 5.5239 19.8333 5.83332 19.8333H7.19832Z" fill="#C9C9C9"/>
</svg>
