<svg width="98" height="99" viewBox="0 0 98 99" fill="none" xmlns="http://www.w3.org/2000/svg">
<mask id="mask0_4_158" style="mask-type:luminance" maskUnits="userSpaceOnUse" x="0" y="1" width="98" height="98">
<path d="M0 1.14713H97.5061V99H0V1.14713Z" fill="white"/>
</mask>
<g mask="url(#mask0_4_158)">
<mask id="mask1_4_158" style="mask-type:luminance" maskUnits="userSpaceOnUse" x="-40" y="-32" width="154" height="152">
<path d="M-39.1423 38.5975L24.3789 -31.3244L113.204 49.253L49.6816 119.176L-39.1423 38.5975Z" fill="white"/>
</mask>
<g mask="url(#mask1_4_158)">
<mask id="mask2_4_158" style="mask-type:luminance" maskUnits="userSpaceOnUse" x="-40" y="-32" width="154" height="152">
<path d="M-39.1423 38.5975L24.3789 -31.3244L113.204 49.253L49.6816 119.176L-39.1423 38.5975Z" fill="white"/>
</mask>
<g mask="url(#mask2_4_158)">
<path fill-rule="evenodd" clip-rule="evenodd" d="M2.46921 46.7415C-1.27451 55.2028 -0.552624 65.1524 4.4192 73.3721C8.32244 79.8197 16.3047 88.8975 32.1667 95.3687C32.3303 95.441 47.988 101.842 63.8703 97.1262C71.7045 94.823 77.4242 88.2314 78.4692 80.3825L78.5148 80.0792C78.5392 79.7571 78.5848 79.4546 78.6116 79.1724C78.6279 78.6901 78.8094 78.281 79.0951 77.9663C79.3807 77.6515 79.7518 77.4531 80.1889 77.3523C80.6267 77.2905 81.0442 77.2107 81.3608 77.1148L81.4202 77.092C89.1583 75.315 95.1516 68.9707 96.6897 60.9575C99.5163 46.3861 93.5304 32.9622 92.1501 30.1418C91.9792 30.3305 91.8074 30.5192 91.6357 30.7079L91.5975 30.7493C87.0643 35.7404 80.8269 38.6877 74.1013 39.0122C67.3357 39.3391 60.8452 37.0465 55.8303 32.4971C46.9772 24.5042 45.0427 11.4658 50.7119 1.34793C47.1627 1.80011 43.7267 2.92812 40.6015 4.68316C26.7936 12.467 27.3609 27.5166 27.4822 29.1944L27.4854 29.2741C27.5359 30.3142 26.7171 31.2162 25.6762 31.2666L25.5965 31.2706C23.9167 31.3918 8.89132 32.2571 2.46921 46.7415Z" fill="#304CC4"/>
</g>
</g>
</g>
<mask id="mask3_4_158" style="mask-type:luminance" maskUnits="userSpaceOnUse" x="60" y="0" width="30" height="29">
<path d="M79.8336 0L89.5806 10.6355L70.545 28.081L60.7979 17.4455L79.8336 0Z" fill="white"/>
</mask>
<g mask="url(#mask3_4_158)">
<mask id="mask4_4_158" style="mask-type:luminance" maskUnits="userSpaceOnUse" x="22" y="1" width="86" height="107">
<path d="M22.5664 1.58769L101.91 5.3596L107.655 107.051L28.3103 103.279L22.5664 1.58769Z" fill="white"/>
</mask>
<g mask="url(#mask4_4_158)">
<mask id="mask5_4_158" style="mask-type:luminance" maskUnits="userSpaceOnUse" x="22" y="1" width="86" height="107">
<path d="M22.5664 1.58769L101.91 5.3596L107.655 107.051L28.3103 103.279L22.5664 1.58769Z" fill="white"/>
</mask>
<g mask="url(#mask5_4_158)">
<path fill-rule="evenodd" clip-rule="evenodd" d="M70.0935 9.08023C66.8851 12.3539 65.531 17.3687 66.1741 23.2934C72.0691 23.8854 77.0181 22.4436 80.2254 19.1456C83.4338 15.8719 84.8116 10.8589 84.1444 4.93287C78.2498 4.34138 73.3008 5.78318 70.0935 9.08023Z" fill="#304CC4"/>
</g>
</g>
</g>
<path d="M61.9015 31.2103H65.2466V32.885H61.9015V31.2103Z" fill="#ECECEC"/>
<mask id="mask6_4_158" style="mask-type:luminance" maskUnits="userSpaceOnUse" x="16" y="44" width="55" height="41">
<path d="M16.9672 44.5559H70.5987V84.9511H16.9672V44.5559Z" fill="white"/>
</mask>
<g mask="url(#mask6_4_158)">
<path d="M16.9672 44.6068V78.0977C16.9672 81.7967 19.9682 84.7955 23.6699 84.7955H63.8873C67.589 84.7955 70.59 81.7967 70.59 78.0977V44.6068H16.9672Z" fill="white"/>
</g>
<mask id="mask7_4_158" style="mask-type:luminance" maskUnits="userSpaceOnUse" x="16" y="31" width="55" height="16">
<path d="M16.9672 31.1529H70.5987V46.4175H16.9672V31.1529Z" fill="white"/>
</mask>
<g mask="url(#mask7_4_158)">
<path d="M63.8873 31.2103H23.6699C19.9682 31.2103 16.9672 34.2099 16.9672 37.9089V46.2815H70.59V37.9089C70.59 34.2099 67.589 31.2103 63.8873 31.2103Z" fill="#FF7C54"/>
</g>
<path d="M28.4224 39.1327C27.2457 39.1327 26.2925 38.018 26.2925 36.6393C26.2925 35.2628 27.2457 34.1459 28.4224 34.1459C29.5969 34.1459 30.5509 35.2628 30.5509 36.6393C30.5509 38.0158 29.5969 39.1327 28.4224 39.1327ZM38.4768 39.1327C37.3001 39.1327 36.3468 38.018 36.3468 36.6393C36.3468 35.2628 37.3001 34.1459 38.4768 34.1459C39.6512 34.1459 40.6052 35.2628 40.6052 36.6393C40.6052 38.0158 39.6512 39.1327 38.4768 39.1327ZM48.5311 39.1327C47.3545 39.1327 46.4012 38.018 46.4012 36.6393C46.4012 35.2628 47.3545 34.1459 48.5311 34.1459C49.7056 34.1459 50.661 35.2628 50.661 36.6393C50.6596 38.0158 49.7056 39.1327 48.5311 39.1327ZM58.5855 39.1327C57.4088 39.1327 56.4555 38.018 56.4555 36.6393C56.4555 35.2628 57.4088 34.1459 58.5855 34.1459C59.7599 34.1459 60.7154 35.2628 60.7154 36.6393C60.7139 38.0158 59.7599 39.1327 58.5855 39.1327Z" fill="#292F33"/>
<mask id="mask8_4_158" style="mask-type:luminance" maskUnits="userSpaceOnUse" x="23" y="24" width="43" height="15">
<path d="M23.2319 24.6753H65.3325V38.2267H23.2319V24.6753Z" fill="white"/>
</mask>
<g mask="url(#mask8_4_158)">
<path d="M59.3881 24.812C57.248 24.812 55.3946 26.1551 54.3708 28.1112C53.3557 26.1973 51.4935 24.812 49.3338 24.812C47.1937 24.812 45.3403 26.1551 44.3164 28.1112C43.3013 26.1973 41.4392 24.812 39.2794 24.812C37.1393 24.812 35.2859 26.1551 34.2621 28.1112C33.247 26.1973 31.3848 24.812 29.2251 24.812C25.984 24.812 23.36 27.8581 23.36 31.5186C23.36 34.6236 25.1115 37.1636 27.6649 38.0929C28.9369 38.5532 29.7163 37.3447 29.6071 36.3746C29.5147 35.5711 28.9806 35.0468 28.3853 34.6702C27.5725 34.1561 26.7102 32.9824 26.7102 31.5274C26.7102 29.6782 27.8345 28.0188 29.2236 28.0188C30.6128 28.0188 31.737 29.5342 31.737 31.2089H33.4398C33.4347 31.3129 33.4129 31.4118 33.4129 31.5172C33.4129 34.6214 35.1637 37.1621 37.7178 38.0915C38.9898 38.5517 39.7684 37.3425 39.66 36.3732C39.5676 35.5711 39.0335 35.0468 38.4382 34.6702C37.6254 34.1561 36.7624 32.9824 36.7624 31.5274C36.7624 29.6782 37.8867 28.0188 39.2758 28.0188C40.6649 28.0188 41.7928 29.5364 41.7928 31.2103H43.4956C43.4905 31.3143 43.4687 31.4132 43.4687 31.5186C43.4687 34.6236 45.2202 37.1636 47.7736 38.0929C49.0456 38.5532 49.825 37.3447 49.7158 36.3746C49.6234 35.5726 49.0893 35.049 48.4941 34.6716C47.6812 34.1575 46.8182 32.9839 46.8182 31.5288C46.8182 29.6804 47.9432 28.021 49.3323 28.021C50.7215 28.021 51.8472 29.5364 51.8472 31.2103H53.55C53.5449 31.3143 53.523 31.4132 53.523 31.5186C53.523 34.6236 55.2746 37.1636 57.828 38.0929C59.1 38.5532 59.8793 37.3447 59.7702 36.3746C59.6778 35.5726 59.1436 35.049 58.5484 34.6716C57.7356 34.1575 56.8726 32.9839 56.8726 31.5288C56.8726 29.6804 57.9976 28.021 59.3867 28.021C60.7758 28.021 61.9016 29.5364 61.9016 31.2103H65.2467C65.211 27.8618 62.6052 24.812 59.3881 24.812Z" fill="#ECECEC"/>
</g>
<path d="M32.0484 49.6308H38.7518V56.3286H32.0484V49.6308ZM40.4269 49.6308H47.1303V56.3286H40.4269V49.6308ZM48.8062 49.6308H55.5088V56.3286H48.8062V49.6308ZM57.1847 49.6308H63.8873V56.3286H57.1847V49.6308ZM23.6699 58.0033H30.3726V64.7012H23.6699V58.0033ZM32.0484 58.0033H38.7518V64.7012H32.0484V58.0033ZM40.4269 58.0033H47.1303V64.7012H40.4269V58.0033ZM48.8062 58.0033H55.5088V64.7012H48.8062V58.0033ZM57.1847 58.0033H63.8873V64.7012H57.1847V58.0033ZM23.6699 66.3758H30.3726V73.0737H23.6699V66.3758ZM32.0484 66.3758H38.7518V73.0737H32.0484V66.3758ZM40.4269 66.3758H47.1303V73.0737H40.4269V66.3758ZM48.8062 66.3758H55.5088V73.0737H48.8062V66.3758ZM57.1847 66.3758H63.8873V73.0737H57.1847V66.3758ZM23.6699 74.7484H30.3726V81.4462H23.6699V74.7484ZM32.0484 74.7484H38.7518V81.4462H32.0484V74.7484ZM40.4269 74.7484H47.1303V81.4462H40.4269V74.7484Z" fill="#ECECEC"/>
<mask id="mask9_4_158" style="mask-type:luminance" maskUnits="userSpaceOnUse" x="51" y="56" width="33" height="34">
<path d="M51.356 56.6297H83.8985V89.1491H51.356V56.6297Z" fill="white"/>
</mask>
<g mask="url(#mask9_4_158)">
<path d="M83.8983 72.889C83.8983 81.8716 76.6157 89.1491 67.6267 89.1491C58.6377 89.1491 51.355 81.8716 51.355 72.889C51.355 63.9071 58.6377 56.6297 67.6267 56.6297C76.6157 56.6297 83.8983 63.9071 83.8983 72.889Z" fill="#14CE75"/>
</g>
<path d="M78.232 66.0952L79.0121 68.4112L65.3317 84.1236L57.0522 77.1196V75.4784L60.8922 74.4444L64.9723 78.6787L78.232 66.0952Z" fill="#00893A"/>
<path d="M74.0923 63.8882L78.232 66.0951L65.0923 81.8796L57.0522 75.4784L60.8922 72.8032L64.9723 77.0375L74.0923 63.8882Z" fill="white"/>
</svg>
