<svg width="35" height="40" viewBox="0 0 35 40" fill="none" xmlns="http://www.w3.org/2000/svg">
<path d="M12.998 16H16.998M12.998 11H20.998M12.5 3.5C10.944 3.547 10.017 3.72 9.37497 4.362C8.49597 5.242 8.49597 6.657 8.49597 9.488V15.994C8.49597 18.826 8.49597 20.241 9.37497 21.121C10.253 22 11.668 22 14.496 22H19.496C22.325 22 23.739 22 24.617 21.12C25.497 20.241 25.497 18.826 25.497 15.994V9.488C25.497 6.658 25.497 5.242 24.617 4.362C23.976 3.72 23.048 3.547 21.492 3.5" stroke="#FF7C54" stroke-width="1.5" stroke-linecap="round" stroke-linejoin="round"/>
<path d="M12.496 3.75C12.496 2.784 13.28 2 14.246 2H19.746C20.2101 2 20.6552 2.18437 20.9834 2.51256C21.3116 2.84075 21.496 3.28587 21.496 3.75C21.496 4.21413 21.3116 4.65925 20.9834 4.98744C20.6552 5.31563 20.2101 5.5 19.746 5.5H14.246C13.7818 5.5 13.3367 5.31563 13.0085 4.98744C12.6803 4.65925 12.496 4.21413 12.496 3.75Z" stroke="#FF7C54" stroke-width="1.5" stroke-linecap="round" stroke-linejoin="round"/>
<path d="M0 40C0 38.3431 1.34315 37 3 37H32C33.6569 37 35 38.3431 35 40V40H0V40Z" fill="#FF7C54"/>
</svg>
