<svg width="35" height="40" viewBox="0 0 35 40" fill="none" xmlns="http://www.w3.org/2000/svg">
<path d="M17 15C18.6569 15 20 13.6569 20 12C20 10.3431 18.6569 9 17 9C15.3431 9 14 10.3431 14 12C14 13.6569 15.3431 15 17 15Z" stroke="#C1C1C1" stroke-width="1.5"/>
<path d="M18.765 2.152C18.398 2 17.932 2 17 2C16.068 2 15.602 2 15.235 2.152C14.9922 2.25251 14.7715 2.3999 14.5857 2.58572C14.3999 2.77155 14.2525 2.99218 14.152 3.235C14.06 3.458 14.023 3.719 14.009 4.098C14.0025 4.37193 13.9266 4.63973 13.7884 4.87635C13.6503 5.11298 13.4543 5.31069 13.219 5.451C12.9798 5.58477 12.7106 5.65567 12.4365 5.65707C12.1625 5.65847 11.8925 5.59032 11.652 5.459C11.316 5.281 11.073 5.183 10.832 5.151C10.3063 5.08187 9.77469 5.22431 9.35399 5.547C9.03999 5.79 8.80599 6.193 8.33999 7C7.87399 7.807 7.63999 8.21 7.58899 8.605C7.55463 8.86545 7.57191 9.13012 7.63986 9.38389C7.70781 9.63767 7.82508 9.87556 7.98499 10.084C8.13299 10.276 8.33999 10.437 8.66099 10.639C9.13399 10.936 9.43799 11.442 9.43799 12C9.43799 12.558 9.13399 13.064 8.66099 13.36C8.33999 13.563 8.13199 13.724 7.98499 13.916C7.82508 14.1244 7.70781 14.3623 7.63986 14.6161C7.57191 14.8699 7.55463 15.1345 7.58899 15.395C7.64099 15.789 7.87399 16.193 8.33899 17C8.80599 17.807 9.03899 18.21 9.35399 18.453C9.56243 18.6129 9.80033 18.7302 10.0541 18.7981C10.3079 18.8661 10.5725 18.8834 10.833 18.849C11.073 18.817 11.316 18.719 11.652 18.541C11.8925 18.4097 12.1625 18.3415 12.4365 18.3429C12.7106 18.3443 12.9798 18.4152 13.219 18.549C13.702 18.829 13.989 19.344 14.009 19.902C14.023 20.282 14.059 20.542 14.152 20.765C14.2525 21.0078 14.3999 21.2284 14.5857 21.4143C14.7715 21.6001 14.9922 21.7475 15.235 21.848C15.602 22 16.068 22 17 22C17.932 22 18.398 22 18.765 21.848C19.0078 21.7475 19.2284 21.6001 19.4143 21.4143C19.6001 21.2284 19.7475 21.0078 19.848 20.765C19.94 20.542 19.977 20.282 19.991 19.902C20.011 19.344 20.298 18.828 20.781 18.549C21.0202 18.4152 21.2894 18.3443 21.5635 18.3429C21.8375 18.3415 22.1074 18.4097 22.348 18.541C22.684 18.719 22.927 18.817 23.167 18.849C23.4274 18.8834 23.6921 18.8661 23.9459 18.7981C24.1997 18.7302 24.4376 18.6129 24.646 18.453C24.961 18.211 25.194 17.807 25.66 17C26.126 16.193 26.36 15.79 26.411 15.395C26.4454 15.1345 26.4281 14.8699 26.3601 14.6161C26.2922 14.3623 26.1749 14.1244 26.015 13.916C25.867 13.724 25.66 13.563 25.339 13.361C25.1049 13.2184 24.9109 13.0187 24.775 12.7807C24.6391 12.5427 24.5658 12.2741 24.562 12C24.562 11.442 24.866 10.936 25.339 10.64C25.66 10.437 25.868 10.276 26.015 10.084C26.1749 9.87556 26.2922 9.63767 26.3601 9.38389C26.4281 9.13012 26.4454 8.86545 26.411 8.605C26.359 8.211 26.126 7.807 25.661 7C25.194 6.193 24.961 5.79 24.646 5.547C24.4376 5.38709 24.1997 5.26981 23.9459 5.20187C23.6921 5.13392 23.4274 5.11664 23.167 5.151C22.927 5.183 22.684 5.281 22.347 5.459C22.1066 5.59014 21.8368 5.6582 21.563 5.6568C21.2891 5.6554 21.0201 5.58459 20.781 5.451C20.5456 5.31069 20.3497 5.11298 20.2116 4.87635C20.0734 4.63973 19.9975 4.37193 19.991 4.098C19.977 3.718 19.941 3.458 19.848 3.235C19.7475 2.99218 19.6001 2.77155 19.4143 2.58572C19.2284 2.3999 19.0078 2.25251 18.765 2.152Z" stroke="#C1C1C1" stroke-width="1.5"/>
</svg>
