<svg width="35" height="42" viewBox="0 0 35 42" fill="none" xmlns="http://www.w3.org/2000/svg">
<path d="M0 42C0 40.3431 1.34315 39 3 39H32C33.6569 39 35 40.3431 35 42V42H0V42Z" fill="#FF7C54"/>
<path fill-rule="evenodd" clip-rule="evenodd" d="M14.125 2.53125C14.3488 2.53125 14.5634 2.62014 14.7216 2.77838C14.8799 2.93661 14.9687 3.15122 14.9687 3.375V4.78125H20.0312V3.375C20.0312 3.15122 20.1201 2.93661 20.2784 2.77838C20.4366 2.62014 20.6512 2.53125 20.875 2.53125C21.0988 2.53125 21.3134 2.62014 21.4716 2.77838C21.6299 2.93661 21.7187 3.15122 21.7187 3.375V4.78125H23.125C23.9455 4.78125 24.7324 5.1072 25.3126 5.68739C25.8928 6.26758 26.2187 7.05449 26.2187 7.875V20.25C26.2187 21.0705 25.8928 21.8574 25.3126 22.4376C24.7324 23.0178 23.9455 23.3437 23.125 23.3437H11.875C11.0545 23.3437 10.2676 23.0178 9.68739 22.4376C9.1072 21.8574 8.78125 21.0705 8.78125 20.25V7.875C8.78125 7.05449 9.1072 6.26758 9.68739 5.68739C10.2676 5.1072 11.0545 4.78125 11.875 4.78125H13.2812V3.375C13.2812 3.15122 13.3701 2.93661 13.5284 2.77838C13.6866 2.62014 13.9012 2.53125 14.125 2.53125ZM20.0312 6.46875V7.875C20.0312 8.09878 20.1201 8.31339 20.2784 8.47162C20.4366 8.62985 20.6512 8.71875 20.875 8.71875C21.0988 8.71875 21.3134 8.62985 21.4716 8.47162C21.6299 8.31339 21.7187 8.09878 21.7187 7.875V6.46875H23.125C23.9012 6.46875 24.5312 7.09875 24.5312 7.875V10.9687H10.4687V7.875C10.4687 7.09875 11.0987 6.46875 11.875 6.46875H13.2812V7.875C13.2812 8.09878 13.3701 8.31339 13.5284 8.47162C13.6866 8.62985 13.9012 8.71875 14.125 8.71875C14.3488 8.71875 14.5634 8.62985 14.7216 8.47162C14.8799 8.31339 14.9687 8.09878 14.9687 7.875V6.46875H20.0312ZM10.4687 12.6562V20.25C10.4687 21.0262 11.0987 21.6562 11.875 21.6562H23.125C23.9012 21.6562 24.5312 21.0262 24.5312 20.25V12.6562H10.4687Z" fill="#FF7C54"/>
</svg>
