<svg width="35" height="40" viewBox="0 0 35 40" fill="none" xmlns="http://www.w3.org/2000/svg">
<path d="M0 40C0 38.3431 1.34315 37 3 37H32C33.6569 37 35 38.3431 35 40V40H0V40Z" fill="#FF7C54"/>
<path d="M17 22C22.5228 22 27 17.5228 27 12C27 6.47715 22.5228 2 17 2C11.4772 2 7 6.47715 7 12C7 17.5228 11.4772 22 17 22Z" stroke="#FF7C54" stroke-width="1.5"/>
<path d="M15.577 8.204C16.21 7.068 16.527 6.5 17 6.5C17.473 6.5 17.79 7.068 18.423 8.204L18.587 8.498C18.767 8.821 18.857 8.982 18.997 9.088C19.137 9.195 19.313 9.235 19.662 9.314L19.98 9.386C21.21 9.664 21.825 9.803 21.971 10.274C22.118 10.744 21.698 11.234 20.86 12.215L20.643 12.469C20.405 12.747 20.286 12.887 20.233 13.059C20.178 13.231 20.196 13.417 20.233 13.789L20.265 14.127C20.392 15.435 20.455 16.089 20.072 16.38C19.689 16.67 19.114 16.406 17.962 15.876L17.664 15.738C17.337 15.588 17.174 15.512 17 15.512C16.827 15.512 16.663 15.588 16.336 15.738L16.038 15.876C14.886 16.406 14.311 16.671 13.928 16.38C13.545 16.09 13.608 15.435 13.735 14.127L13.767 13.789C13.804 13.417 13.822 13.231 13.767 13.059C13.714 12.887 13.595 12.747 13.357 12.469L13.14 12.215C12.302 11.235 11.882 10.745 12.029 10.274C12.175 9.804 12.789 9.664 14.019 9.386L14.338 9.314C14.688 9.234 14.862 9.195 15.003 9.089C15.143 8.982 15.233 8.821 15.413 8.499L15.577 8.204Z" stroke="#FF7C54" stroke-width="1.5"/>
</svg>
