<svg width="24" height="24" viewBox="0 0 24 24" fill="none" xmlns="http://www.w3.org/2000/svg">
<path d="M4 17V19H20V17H4ZM7 6V4C7 3.45 7.196 2.97933 7.588 2.588C7.98 2.19667 8.45067 2.00067 9 2H15C15.55 2 16.021 2.196 16.413 2.588C16.805 2.98 17.0007 3.45067 17 4V6H20C20.55 6 21.021 6.196 21.413 6.588C21.805 6.98 22.0007 7.45067 22 8V19C22 19.55 21.8043 20.021 21.413 20.413C21.0217 20.805 20.5507 21.0007 20 21H4C3.45 21 2.97933 20.8043 2.588 20.413C2.19667 20.0217 2.00067 19.5507 2 19V8C2 7.45 2.196 6.97933 2.588 6.588C2.98 6.19667 3.45067 6.00067 4 6H7ZM4 14H20V8H17V10H15V8H9V10H7V8H4V14ZM9 6H15V4H9V6Z" fill="#FF7C54"/>
</svg>
