<svg xmlns="http://www.w3.org/2000/svg" xmlns:xlink="http://www.w3.org/1999/xlink" width="167" zoomAndPan="magnify" viewBox="0 0 125.25 118.499997" height="158" preserveAspectRatio="xMidYMid meet" version="1.0"><defs><filter x="0%" y="0%" width="100%" height="100%" id="645d4f39f3"><feColorMatrix values="0 0 0 0 1 0 0 0 0 1 0 0 0 0 1 0 0 0 1 0" color-interpolation-filters="sRGB"/></filter><clipPath id="45f49eb33e"><path d="M 0 0.105469 L 124.503906 0.105469 L 124.503906 117.898438 L 0 117.898438 Z M 0 0.105469 " clip-rule="nonzero"/></clipPath><clipPath id="a028402d98"><path d="M 0 0.105469 L 124.503906 0.105469 L 124.503906 117.859375 L 0 117.859375 Z M 0 0.105469 " clip-rule="nonzero"/></clipPath><clipPath id="c6efd8b9d7"><path d="M 17.894531 0.105469 L 106.496094 0.105469 C 111.242188 0.105469 115.792969 1.988281 119.148438 5.34375 C 122.503906 8.699219 124.390625 13.25 124.390625 17.996094 L 124.390625 99.96875 C 124.390625 104.714844 122.503906 109.265625 119.148438 112.621094 C 115.792969 115.976562 111.242188 117.859375 106.496094 117.859375 L 17.894531 117.859375 C 13.148438 117.859375 8.597656 115.976562 5.242188 112.621094 C 1.886719 109.265625 0 104.714844 0 99.96875 L 0 17.996094 C 0 13.25 1.886719 8.699219 5.242188 5.34375 C 8.597656 1.988281 13.148438 0.105469 17.894531 0.105469 Z M 17.894531 0.105469 " clip-rule="nonzero"/></clipPath><clipPath id="975db56f31"><path d="M 27.660156 26 L 96.992188 26 L 96.992188 94.859375 L 27.660156 94.859375 Z M 27.660156 26 " clip-rule="nonzero"/></clipPath><clipPath id="ff48f39b17"><path d="M 50 23.285156 L 74 23.285156 L 74 32 L 50 32 Z M 50 23.285156 " clip-rule="nonzero"/></clipPath><mask id="4fb27eaefa"><g filter="url(#645d4f39f3)"><rect x="-12.525" width="150.3" fill="#000000" y="-11.85" height="142.199996" fill-opacity="0.2"/></g></mask><clipPath id="0d5bdf00ed"><path d="M 0.339844 0.285156 L 23.957031 0.285156 L 23.957031 8.835938 L 0.339844 8.835938 Z M 0.339844 0.285156 " clip-rule="nonzero"/></clipPath><clipPath id="3c64166c6d"><rect x="0" width="24" y="0" height="9"/></clipPath></defs><g clip-path="url(#45f49eb33e)"><path fill="#ffffff" d="M 0 0.105469 L 124.503906 0.105469 L 124.503906 117.898438 L 0 117.898438 Z M 0 0.105469 " fill-opacity="1" fill-rule="nonzero"/></g><g clip-path="url(#a028402d98)"><g clip-path="url(#c6efd8b9d7)"><path fill="#ffc1ad" d="M 0 0.105469 L 124.195312 0.105469 L 124.195312 117.859375 L 0 117.859375 Z M 0 0.105469 " fill-opacity="1" fill-rule="nonzero"/></g></g><g clip-path="url(#975db56f31)"><path fill="#ff7c54" d="M 92.582031 94.554688 L 31.296875 90.597656 C 30.800781 90.566406 30.332031 90.441406 29.882812 90.226562 C 29.4375 90.011719 29.046875 89.71875 28.710938 89.351562 C 28.378906 88.980469 28.125 88.566406 27.953125 88.097656 C 27.785156 87.632812 27.707031 87.148438 27.722656 86.652344 L 29.679688 30.574219 C 29.6875 30.316406 29.722656 30.066406 29.78125 29.816406 C 29.839844 29.570312 29.925781 29.328125 30.03125 29.097656 C 30.140625 28.867188 30.269531 28.648438 30.417969 28.441406 C 30.570312 28.234375 30.742188 28.046875 30.929688 27.875 C 31.117188 27.703125 31.324219 27.550781 31.542969 27.421875 C 31.761719 27.289062 31.992188 27.183594 32.234375 27.097656 C 32.472656 27.011719 32.71875 26.953125 32.972656 26.917969 C 33.226562 26.882812 33.480469 26.871094 33.734375 26.886719 L 88.996094 30.292969 C 89.457031 30.324219 89.898438 30.429688 90.320312 30.621094 C 90.742188 30.808594 91.121094 31.066406 91.449219 31.390625 C 91.777344 31.71875 92.039062 32.089844 92.234375 32.511719 C 92.425781 32.929688 92.539062 33.371094 92.574219 33.832031 L 96.640625 90.46875 C 96.660156 90.738281 96.648438 91.011719 96.613281 91.28125 C 96.574219 91.550781 96.507812 91.8125 96.410156 92.070312 C 96.316406 92.324219 96.195312 92.566406 96.050781 92.796875 C 95.902344 93.027344 95.734375 93.238281 95.542969 93.433594 C 95.347656 93.628906 95.136719 93.796875 94.910156 93.945312 C 94.679688 94.09375 94.4375 94.21875 94.183594 94.316406 C 93.929688 94.410156 93.667969 94.480469 93.394531 94.519531 C 93.125 94.5625 92.855469 94.574219 92.582031 94.554688 Z M 92.582031 94.554688 " fill-opacity="1" fill-rule="nonzero"/></g><path fill="#ffffff" d="M 36.875 41.40625 L 87.5 41.40625 L 87.5 41.570312 L 36.875 41.570312 Z M 36.875 41.40625 " fill-opacity="1" fill-rule="nonzero"/><path fill="#ffffff" d="M 36.875 52.761719 L 87.5 52.761719 L 87.5 52.925781 L 36.875 52.925781 Z M 36.875 52.761719 " fill-opacity="1" fill-rule="nonzero"/><path fill="#ffffff" d="M 36.875 64.121094 L 87.5 64.121094 L 87.5 64.285156 L 36.875 64.285156 Z M 36.875 64.121094 " fill-opacity="1" fill-rule="nonzero"/><path fill="#ffffff" d="M 36.875 75.476562 L 87.5 75.476562 L 87.5 75.640625 L 36.875 75.640625 Z M 36.875 75.476562 " fill-opacity="1" fill-rule="nonzero"/><path fill="#ffffff" d="M 36.875 86.832031 L 87.5 86.832031 L 87.5 86.996094 L 36.875 86.996094 Z M 36.875 86.832031 " fill-opacity="1" fill-rule="nonzero"/><g clip-path="url(#ff48f39b17)"><g mask="url(#4fb27eaefa)"><g transform="matrix(1, 0, 0, 1, 50, 23)"><g clip-path="url(#3c64166c6d)"><g clip-path="url(#0d5bdf00ed)"><path fill="#1d1d1b" d="M 0.636719 0.339844 L 23.738281 0.339844 L 23.738281 8.648438 L 0.636719 8.648438 Z M 0.636719 0.339844 " fill-opacity="1" fill-rule="nonzero"/></g></g></g></g></g></svg>