<svg xmlns="http://www.w3.org/2000/svg" xmlns:xlink="http://www.w3.org/1999/xlink" width="167" zoomAndPan="magnify" viewBox="0 0 125.25 118.499997" height="158" preserveAspectRatio="xMidYMid meet" version="1.0"><defs><clipPath id="1e726d00aa"><path d="M 0 0.105469 L 124.503906 0.105469 L 124.503906 117.898438 L 0 117.898438 Z M 0 0.105469 " clip-rule="nonzero"/></clipPath><clipPath id="c8ef975ce7"><path d="M 0 0.105469 L 124.503906 0.105469 L 124.503906 117.859375 L 0 117.859375 Z M 0 0.105469 " clip-rule="nonzero"/></clipPath><clipPath id="5c00095b0c"><path d="M 17.894531 0.105469 L 106.496094 0.105469 C 111.242188 0.105469 115.792969 1.988281 119.148438 5.34375 C 122.503906 8.699219 124.390625 13.25 124.390625 17.996094 L 124.390625 99.96875 C 124.390625 104.714844 122.503906 109.265625 119.148438 112.621094 C 115.792969 115.976562 111.242188 117.859375 106.496094 117.859375 L 17.894531 117.859375 C 13.148438 117.859375 8.597656 115.976562 5.242188 112.621094 C 1.886719 109.265625 0 104.714844 0 99.96875 L 0 17.996094 C 0 13.25 1.886719 8.699219 5.242188 5.34375 C 8.597656 1.988281 13.148438 0.105469 17.894531 0.105469 Z M 17.894531 0.105469 " clip-rule="nonzero"/></clipPath><clipPath id="5ab9832cb2"><path d="M 27 35.332031 L 98 35.332031 L 98 72 L 27 72 Z M 27 35.332031 " clip-rule="nonzero"/></clipPath><clipPath id="e46d48b30e"><path d="M 26 35.332031 L 99 35.332031 L 99 72 L 26 72 Z M 26 35.332031 " clip-rule="nonzero"/></clipPath><clipPath id="2490daa0e3"><path d="M 22.359375 71 L 102 71 L 102 78 L 22.359375 78 Z M 22.359375 71 " clip-rule="nonzero"/></clipPath><clipPath id="0f44584940"><path d="M 22.359375 70 L 102.132812 70 L 102.132812 79 L 22.359375 79 Z M 22.359375 70 " clip-rule="nonzero"/></clipPath><clipPath id="04b68237c0"><path d="M 23 77 L 102 77 L 102 82.300781 L 23 82.300781 Z M 23 77 " clip-rule="nonzero"/></clipPath><clipPath id="6a1c92beb8"><path d="M 22.359375 76 L 102 76 L 102 82.300781 L 22.359375 82.300781 Z M 22.359375 76 " clip-rule="nonzero"/></clipPath></defs><g clip-path="url(#1e726d00aa)"><path fill="#ffffff" d="M 0 0.105469 L 124.503906 0.105469 L 124.503906 117.898438 L 0 117.898438 Z M 0 0.105469 " fill-opacity="1" fill-rule="nonzero"/></g><g clip-path="url(#c8ef975ce7)"><g clip-path="url(#5c00095b0c)"><path fill="#ffc1ad" d="M 0 0.105469 L 124.195312 0.105469 L 124.195312 117.859375 L 0 117.859375 Z M 0 0.105469 " fill-opacity="1" fill-rule="nonzero"/></g></g><g clip-path="url(#5ab9832cb2)"><path fill="#fff1e4" d="M 97.542969 71.230469 L 97.542969 38.761719 C 97.542969 37.203125 96.277344 35.941406 94.722656 35.941406 L 30.351562 35.941406 C 28.796875 35.941406 27.535156 37.203125 27.535156 38.761719 L 27.535156 71.230469 L 97.542969 71.230469 " fill-opacity="1" fill-rule="nonzero"/></g><g clip-path="url(#e46d48b30e)"><path fill="#ffad80" d="M 97.539062 71.230469 L 98.132812 71.230469 L 98.132812 38.761719 C 98.132812 37.820312 97.75 36.964844 97.132812 36.351562 C 96.519531 35.734375 95.660156 35.351562 94.722656 35.351562 L 30.351562 35.351562 C 29.414062 35.351562 28.554688 35.734375 27.941406 36.351562 C 27.324219 36.964844 26.941406 37.820312 26.941406 38.761719 L 26.941406 71.230469 C 26.941406 71.386719 27.003906 71.539062 27.117188 71.648438 C 27.226562 71.757812 27.378906 71.820312 27.535156 71.820312 L 97.539062 71.820312 C 97.695312 71.820312 97.847656 71.757812 97.960938 71.648438 C 98.070312 71.539062 98.132812 71.386719 98.132812 71.230469 L 97.539062 71.230469 L 97.539062 70.640625 L 28.125 70.640625 L 28.125 38.761719 C 28.125 38.144531 28.371094 37.589844 28.777344 37.1875 C 29.183594 36.78125 29.734375 36.535156 30.351562 36.535156 L 94.722656 36.535156 C 95.339844 36.535156 95.894531 36.78125 96.296875 37.1875 C 96.703125 37.589844 96.949219 38.144531 96.949219 38.761719 L 96.949219 71.230469 L 97.539062 71.230469 L 97.539062 70.640625 L 97.539062 71.230469 " fill-opacity="1" fill-rule="nonzero"/></g><path fill="#ff7c54" d="M 94.019531 71.230469 L 94.019531 42.402344 C 94.019531 41.097656 92.960938 40.039062 91.652344 40.039062 L 33.421875 40.039062 C 32.113281 40.039062 31.054688 41.097656 31.054688 42.402344 L 31.054688 71.230469 L 94.019531 71.230469 " fill-opacity="1" fill-rule="nonzero"/><path fill="#ffad80" d="M 94.019531 71.230469 L 94.609375 71.230469 L 94.609375 42.402344 C 94.609375 40.769531 93.285156 39.445312 91.652344 39.445312 L 33.421875 39.445312 C 32.605469 39.445312 31.863281 39.777344 31.332031 40.3125 C 30.796875 40.847656 30.464844 41.589844 30.464844 42.402344 L 30.464844 71.230469 C 30.464844 71.386719 30.527344 71.539062 30.636719 71.648438 C 30.746094 71.757812 30.898438 71.820312 31.054688 71.820312 L 94.019531 71.820312 C 94.175781 71.820312 94.328125 71.757812 94.4375 71.648438 C 94.546875 71.539062 94.609375 71.386719 94.609375 71.230469 L 94.019531 71.230469 L 94.019531 70.640625 L 31.644531 70.640625 L 31.644531 42.402344 C 31.648438 41.910156 31.84375 41.472656 32.167969 41.148438 C 32.488281 40.828125 32.929688 40.628906 33.421875 40.628906 L 91.652344 40.628906 C 92.144531 40.628906 92.585938 40.828125 92.90625 41.148438 C 93.230469 41.472656 93.425781 41.910156 93.429688 42.402344 L 93.429688 71.230469 L 94.019531 71.230469 L 94.019531 70.640625 L 94.019531 71.230469 " fill-opacity="1" fill-rule="nonzero"/><g clip-path="url(#2490daa0e3)"><path fill="#fff1e4" d="M 101.070312 77.570312 L 23.320312 77.570312 C 23.117188 77.570312 22.953125 77.402344 22.953125 77.199219 L 22.953125 71.601562 C 22.953125 71.394531 23.117188 71.230469 23.320312 71.230469 L 101.070312 71.230469 C 101.273438 71.230469 101.4375 71.394531 101.4375 71.601562 L 101.4375 77.199219 C 101.4375 77.402344 101.273438 77.570312 101.070312 77.570312 " fill-opacity="1" fill-rule="nonzero"/></g><g clip-path="url(#0f44584940)"><path fill="#ffad80" d="M 101.070312 77.570312 L 101.070312 76.976562 L 23.320312 76.976562 L 23.320312 77.199219 L 23.476562 77.042969 C 23.4375 77.003906 23.378906 76.976562 23.320312 76.976562 L 23.320312 77.199219 L 23.476562 77.042969 L 23.320312 77.199219 L 23.542969 77.199219 C 23.542969 77.140625 23.515625 77.082031 23.476562 77.042969 L 23.320312 77.199219 L 23.542969 77.199219 L 23.542969 71.601562 L 23.320312 71.601562 L 23.476562 71.757812 C 23.515625 71.71875 23.542969 71.660156 23.542969 71.601562 L 23.320312 71.601562 L 23.476562 71.757812 L 23.320312 71.601562 L 23.320312 71.820312 C 23.378906 71.820312 23.4375 71.796875 23.476562 71.757812 L 23.320312 71.601562 L 23.320312 71.820312 L 101.070312 71.820312 L 101.070312 71.601562 L 100.910156 71.757812 C 100.949219 71.796875 101.007812 71.820312 101.070312 71.820312 L 101.070312 71.601562 L 100.910156 71.757812 L 101.070312 71.601562 L 100.847656 71.601562 C 100.847656 71.660156 100.871094 71.71875 100.910156 71.757812 L 101.070312 71.601562 L 100.847656 71.601562 L 100.847656 77.199219 L 101.070312 77.199219 L 100.910156 77.042969 C 100.871094 77.082031 100.847656 77.140625 100.847656 77.199219 L 101.070312 77.199219 L 100.910156 77.042969 L 101.070312 77.199219 L 101.070312 76.976562 C 101.007812 76.976562 100.949219 77.003906 100.910156 77.042969 L 101.070312 77.199219 L 101.070312 76.976562 L 101.070312 78.160156 C 101.332031 78.160156 101.574219 78.050781 101.746094 77.878906 C 101.921875 77.707031 102.027344 77.464844 102.027344 77.199219 L 102.027344 71.601562 C 102.027344 71.335938 101.921875 71.09375 101.746094 70.921875 C 101.574219 70.75 101.332031 70.640625 101.070312 70.640625 L 23.320312 70.640625 C 23.058594 70.640625 22.8125 70.75 22.640625 70.921875 C 22.46875 71.09375 22.359375 71.335938 22.359375 71.601562 L 22.359375 77.199219 C 22.359375 77.460938 22.46875 77.707031 22.640625 77.878906 C 22.8125 78.050781 23.058594 78.160156 23.320312 78.160156 L 101.070312 78.160156 L 101.070312 77.570312 " fill-opacity="1" fill-rule="nonzero"/></g><g clip-path="url(#04b68237c0)"><path fill="#ff7c54" d="M 94.898438 82.015625 L 29.488281 82.015625 L 23.292969 77.570312 L 101.09375 77.570312 L 94.898438 82.015625 " fill-opacity="1" fill-rule="nonzero"/></g><g clip-path="url(#6a1c92beb8)"><path fill="#ffad80" d="M 94.898438 82.015625 L 94.898438 81.425781 L 29.679688 81.425781 L 25.132812 78.160156 L 99.257812 78.160156 L 94.554688 81.535156 L 94.898438 82.015625 L 94.898438 81.425781 L 94.898438 82.015625 L 95.242188 82.496094 L 101.441406 78.050781 C 101.648438 77.898438 101.738281 77.632812 101.65625 77.386719 C 101.578125 77.144531 101.351562 76.976562 101.09375 76.976562 L 23.292969 76.976562 C 23.039062 76.976562 22.808594 77.144531 22.730469 77.386719 C 22.652344 77.632812 22.742188 77.898438 22.949219 78.050781 L 29.144531 82.496094 C 29.246094 82.566406 29.367188 82.605469 29.488281 82.605469 L 94.898438 82.605469 C 95.023438 82.605469 95.140625 82.566406 95.242188 82.496094 L 94.898438 82.015625 " fill-opacity="1" fill-rule="nonzero"/></g><path fill="#ff7c54" d="M 62.644531 37.941406 C 62.644531 38.1875 62.441406 38.390625 62.195312 38.390625 C 61.945312 38.390625 61.746094 38.1875 61.746094 37.941406 C 61.746094 37.691406 61.945312 37.488281 62.195312 37.488281 C 62.441406 37.488281 62.644531 37.691406 62.644531 37.941406 " fill-opacity="1" fill-rule="nonzero"/><path fill="#ffad80" d="M 62.644531 37.941406 L 62.054688 37.941406 L 62.195312 37.941406 L 62.09375 37.839844 C 62.070312 37.863281 62.054688 37.902344 62.054688 37.941406 L 62.195312 37.941406 L 62.09375 37.839844 L 62.195312 37.941406 L 62.195312 37.800781 C 62.15625 37.800781 62.117188 37.816406 62.09375 37.839844 L 62.195312 37.941406 L 62.195312 37.800781 L 62.195312 37.941406 L 62.292969 37.839844 C 62.269531 37.816406 62.230469 37.796875 62.195312 37.800781 L 62.195312 37.941406 L 62.292969 37.839844 L 62.195312 37.941406 L 62.335938 37.941406 C 62.335938 37.902344 62.320312 37.863281 62.292969 37.839844 L 62.195312 37.941406 L 62.335938 37.941406 L 62.195312 37.941406 L 62.292969 38.039062 C 62.320312 38.015625 62.335938 37.976562 62.335938 37.941406 L 62.195312 37.941406 L 62.292969 38.039062 L 62.195312 37.941406 L 62.195312 38.082031 C 62.230469 38.082031 62.269531 38.0625 62.292969 38.039062 L 62.195312 37.941406 L 62.195312 38.082031 L 62.195312 37.941406 L 62.09375 38.039062 C 62.117188 38.0625 62.15625 38.082031 62.195312 38.082031 L 62.195312 37.941406 L 62.09375 38.039062 L 62.195312 37.941406 L 62.054688 37.941406 C 62.054688 37.976562 62.070312 38.015625 62.09375 38.039062 L 62.195312 37.941406 L 62.054688 37.941406 L 63.234375 37.941406 C 63.234375 37.65625 63.117188 37.390625 62.929688 37.203125 C 62.746094 37.015625 62.480469 36.898438 62.195312 36.898438 C 61.910156 36.898438 61.644531 37.015625 61.457031 37.203125 C 61.269531 37.390625 61.152344 37.65625 61.152344 37.941406 C 61.152344 38.226562 61.269531 38.488281 61.457031 38.675781 C 61.644531 38.863281 61.910156 38.980469 62.195312 38.980469 C 62.480469 38.980469 62.746094 38.863281 62.929688 38.675781 C 63.117188 38.488281 63.234375 38.226562 63.234375 37.941406 L 62.644531 37.941406 " fill-opacity="1" fill-rule="nonzero"/><path fill="#ffad80" d="M 54.160156 74.992188 L 70.226562 74.992188 C 70.554688 74.992188 70.820312 74.726562 70.820312 74.398438 C 70.820312 74.074219 70.554688 73.808594 70.226562 73.808594 L 54.160156 73.808594 C 53.835938 73.808594 53.570312 74.074219 53.570312 74.398438 C 53.570312 74.726562 53.835938 74.992188 54.160156 74.992188 " fill-opacity="1" fill-rule="nonzero"/></svg>