<svg xmlns="http://www.w3.org/2000/svg" xmlns:xlink="http://www.w3.org/1999/xlink" width="167" zoomAndPan="magnify" viewBox="0 0 125.25 118.499997" height="158" preserveAspectRatio="xMidYMid meet" version="1.0"><defs><clipPath id="0304d08fef"><path d="M 0 0.105469 L 124.503906 0.105469 L 124.503906 117.898438 L 0 117.898438 Z M 0 0.105469 " clip-rule="nonzero"/></clipPath><clipPath id="5654fec11e"><path d="M 0 0.105469 L 124.503906 0.105469 L 124.503906 117.859375 L 0 117.859375 Z M 0 0.105469 " clip-rule="nonzero"/></clipPath><clipPath id="207b60aa32"><path d="M 17.894531 0.105469 L 106.496094 0.105469 C 111.242188 0.105469 115.792969 1.988281 119.148438 5.34375 C 122.503906 8.699219 124.390625 13.25 124.390625 17.996094 L 124.390625 99.96875 C 124.390625 104.714844 122.503906 109.265625 119.148438 112.621094 C 115.792969 115.976562 111.242188 117.859375 106.496094 117.859375 L 17.894531 117.859375 C 13.148438 117.859375 8.597656 115.976562 5.242188 112.621094 C 1.886719 109.265625 0 104.714844 0 99.96875 L 0 17.996094 C 0 13.25 1.886719 8.699219 5.242188 5.34375 C 8.597656 1.988281 13.148438 0.105469 17.894531 0.105469 Z M 17.894531 0.105469 " clip-rule="nonzero"/></clipPath><clipPath id="26defa497d"><path d="M 31.054688 62 L 51 62 L 51 90 L 31.054688 90 Z M 31.054688 62 " clip-rule="nonzero"/></clipPath><clipPath id="6f121a7c01"><path d="M 45.90625 53.515625 L 93.332031 53.515625 L 93.332031 98.648438 L 45.90625 98.648438 Z M 45.90625 53.515625 " clip-rule="nonzero"/></clipPath></defs><g clip-path="url(#0304d08fef)"><path fill="#ffffff" d="M 0 0.105469 L 124.503906 0.105469 L 124.503906 117.898438 L 0 117.898438 Z M 0 0.105469 " fill-opacity="1" fill-rule="nonzero"/></g><g clip-path="url(#5654fec11e)"><g clip-path="url(#207b60aa32)"><path fill="#ffc1ad" d="M 0 0.105469 L 124.195312 0.105469 L 124.195312 117.859375 L 0 117.859375 Z M 0 0.105469 " fill-opacity="1" fill-rule="nonzero"/></g></g><g clip-path="url(#26defa497d)"><path fill="#ff7c54" d="M 49.191406 86.652344 C 49.15625 86.539062 49.121094 86.429688 49.082031 86.316406 C 39.394531 86.136719 37.789062 82.433594 37.894531 71.21875 C 37.941406 69.703125 38.691406 68.707031 39.804688 68.027344 C 39.804688 68.027344 39.804688 68.023438 39.804688 68.023438 C 41.777344 66.859375 44.5 66.726562 46.589844 66.804688 C 46.585938 65.152344 46.613281 63.582031 46.675781 62.035156 C 41.628906 62.019531 32.03125 62.542969 31.707031 68.429688 C 31.488281 75.886719 33.539062 84.46875 35.714844 85.933594 C 39.863281 88.609375 45.3125 89.167969 50.121094 89.011719 C 49.78125 88.261719 49.472656 87.472656 49.191406 86.652344 " fill-opacity="1" fill-rule="nonzero"/></g><path fill="#ffad80" d="M 46.953125 62.582031 C 45.496094 62.449219 33.199219 63.242188 32.847656 67.210938 C 31.054688 73.109375 34.710938 83.792969 34.855469 83.636719 C 35.214844 83.246094 33.765625 79.5 33.5625 75.539062 C 33.347656 71.300781 34.429688 66.816406 36.292969 65.953125 C 39.820312 64.3125 46.777344 64.332031 46.777344 64.332031 L 46.953125 62.582031 " fill-opacity="1" fill-rule="nonzero"/><path fill="#ff7c54" d="M 50.121094 89.011719 C 46.367188 89.167969 42.28125 88.769531 38.699219 87.441406 C 40.511719 87.753906 43.535156 88.433594 45.242188 88.511719 C 46.015625 88.546875 46.960938 88.8125 48.164062 86.769531 C 46.753906 86.839844 44.398438 86.625 40.65625 85.464844 C 35.875 83.980469 35.082031 70.914062 36.71875 68.578125 C 39.347656 64.414062 43.671875 67.003906 45.078125 62.042969 C 45.617188 62.03125 46.160156 62.027344 46.675781 62.035156 C 46.613281 63.582031 46.585938 65.152344 46.589844 66.804688 C 44.5 66.726562 41.777344 66.859375 39.804688 68.023438 C 39.804688 68.023438 39.804688 68.027344 39.804688 68.027344 C 38.691406 68.707031 37.941406 69.703125 37.894531 71.21875 C 37.835938 82.511719 39.304688 86.074219 49.082031 86.316406 C 49.382812 87.238281 49.738281 88.160156 50.121094 89.011719 " fill-opacity="1" fill-rule="nonzero"/><g clip-path="url(#6f121a7c01)"><path fill="#ff7c54" d="M 84.46875 95.585938 C 84.257812 95.707031 84.039062 95.828125 83.808594 95.941406 L 83.804688 95.945312 C 75.390625 100.195312 53.714844 100.488281 49.460938 89.011719 C 46.164062 81.152344 45.710938 71.660156 46.007812 62.945312 C 46.070312 61.152344 46.160156 59.390625 46.265625 57.683594 C 46.285156 57.355469 46.472656 57.046875 46.804688 56.757812 C 52.035156 52.199219 93.480469 52.351562 93.210938 58.148438 C 93.5625 65.074219 93.761719 89.847656 84.46875 95.585938 " fill-opacity="1" fill-rule="nonzero"/></g><path fill="#ff7c54" d="M 92.449219 58.054688 C 92.449219 58.855469 91.152344 59.636719 88.910156 60.316406 C 88.734375 60.363281 88.550781 60.417969 88.363281 60.46875 C 84.253906 61.597656 77.429688 62.386719 69.671875 62.386719 C 61.136719 62.386719 53.660156 61.433594 49.707031 60.121094 C 49.589844 60.082031 49.480469 60.039062 49.367188 60 L 49.363281 60 C 47.675781 59.402344 46.722656 58.734375 46.722656 58.054688 C 46.722656 55.808594 56.953125 53.988281 69.582031 53.988281 C 82.207031 53.988281 92.449219 55.808594 92.449219 58.054688 " fill-opacity="1" fill-rule="nonzero"/><path fill="#8c461f" d="M 88.910156 60.3125 C 88.734375 60.363281 88.550781 60.417969 88.363281 60.46875 C 86.753906 60.914062 84.722656 61.300781 82.390625 61.609375 C 78.761719 62.09375 74.386719 62.386719 69.667969 62.386719 C 65.773438 62.386719 62.101562 62.1875 58.882812 61.847656 C 55.050781 61.441406 51.859375 60.835938 49.707031 60.121094 C 49.589844 60.078125 49.480469 60.039062 49.363281 60 C 50.371094 58.332031 56.621094 56.980469 64.742188 56.621094 C 66.132812 56.558594 67.582031 56.527344 69.070312 56.527344 C 71.167969 56.527344 73.191406 56.589844 75.089844 56.710938 C 82.871094 57.203125 88.566406 58.621094 88.910156 60.3125 " fill-opacity="1" fill-rule="nonzero"/><path fill="#ff7c54" d="M 63.683594 93.671875 C 53.863281 88.621094 51.804688 77.75 51.535156 74.507812 C 51.046875 68.648438 50.820312 63.953125 51.179688 60.550781 C 50.644531 60.414062 50.152344 60.269531 49.707031 60.121094 C 49.589844 60.078125 49.476562 60.042969 49.367188 60 L 49.359375 60 C 48.066406 59.539062 47.203125 59.039062 46.875 58.523438 C 46.625 58.21875 46.453125 57.835938 46.324219 57.410156 C 46.292969 57.5 46.273438 57.589844 46.265625 57.683594 C 46.160156 59.390625 46.070312 61.152344 46.007812 62.945312 C 45.710938 71.660156 46.164062 81.152344 49.460938 89.011719 C 53.714844 100.488281 75.390625 100.195312 83.804688 95.945312 L 83.808594 95.941406 C 78.089844 96.503906 69.074219 96.441406 63.683594 93.671875 " fill-opacity="1" fill-rule="nonzero"/><path fill="#ffad80" d="M 90.113281 62.851562 C 90.113281 62.851562 81.308594 64.886719 76.5625 65.296875 C 71.722656 65.71875 68.148438 65.609375 68.148438 65.609375 C 68.148438 65.609375 71.445312 67.546875 72.230469 68.949219 C 73.265625 70.804688 72.453125 73.457031 71.9375 75.53125 C 74.695312 73.292969 74.1875 71.421875 76.332031 68.296875 C 76.464844 68.101562 90.113281 62.851562 90.113281 62.851562 " fill-opacity="1" fill-rule="nonzero"/><path fill="#fff1e4" d="M 81.269531 44.148438 C 80.097656 40.695312 74.566406 40.21875 72.171875 40.609375 C 74.914062 39.015625 75.023438 37.875 73.96875 36.976562 C 71.707031 35.054688 64.066406 34.25 65.277344 32.5625 C 65.5625 32.167969 71.457031 31.855469 71.734375 30.460938 C 72.253906 27.820312 65.152344 25.335938 64.652344 23.40625 C 64.222656 21.757812 66.175781 19.601562 65.9375 18.878906 C 65.472656 17.46875 63.488281 19.128906 63.222656 20.414062 C 62.171875 25.476562 64.605469 23.632812 65.382812 28.199219 C 65.78125 30.53125 43.265625 29.847656 63.003906 36.597656 C 63.242188 36.679688 63.449219 36.761719 63.621094 36.84375 C 67.417969 38.648438 54.488281 40.179688 56.523438 43.347656 C 56.804688 43.789062 57.171875 44.28125 57.761719 44.496094 C 60.820312 45.613281 64.617188 46.082031 68.507812 46.082031 C 68.84375 46.082031 69.179688 46.074219 69.511719 46.0625 C 71.660156 46.121094 75.476562 46.347656 75.535156 47.222656 C 75.613281 48.445312 67.421875 49.226562 67.503906 49.625 C 67.660156 50.371094 76.015625 50.832031 79.265625 49.230469 C 81.902344 47.933594 81.445312 44.628906 81.269531 44.148438 " fill-opacity="1" fill-rule="nonzero"/></svg>