<svg xmlns="http://www.w3.org/2000/svg" xmlns:xlink="http://www.w3.org/1999/xlink" width="167" zoomAndPan="magnify" viewBox="0 0 125.25 118.499997" height="158" preserveAspectRatio="xMidYMid meet" version="1.0"><defs><clipPath id="100e8a78c4"><path d="M 0 0.105469 L 124.503906 0.105469 L 124.503906 117.898438 L 0 117.898438 Z M 0 0.105469 " clip-rule="nonzero"/></clipPath><clipPath id="bc6992897d"><path d="M 0 0.105469 L 124.503906 0.105469 L 124.503906 117.859375 L 0 117.859375 Z M 0 0.105469 " clip-rule="nonzero"/></clipPath><clipPath id="67a782725c"><path d="M 17.894531 0.105469 L 106.496094 0.105469 C 111.242188 0.105469 115.792969 1.988281 119.148438 5.34375 C 122.503906 8.699219 124.390625 13.25 124.390625 17.996094 L 124.390625 99.96875 C 124.390625 104.714844 122.503906 109.265625 119.148438 112.621094 C 115.792969 115.976562 111.242188 117.859375 106.496094 117.859375 L 17.894531 117.859375 C 13.148438 117.859375 8.597656 115.976562 5.242188 112.621094 C 1.886719 109.265625 0 104.714844 0 99.96875 L 0 17.996094 C 0 13.25 1.886719 8.699219 5.242188 5.34375 C 8.597656 1.988281 13.148438 0.105469 17.894531 0.105469 Z M 17.894531 0.105469 " clip-rule="nonzero"/></clipPath><clipPath id="63faeb5c46"><path d="M 26.296875 68 L 32 68 L 32 78 L 26.296875 78 Z M 26.296875 68 " clip-rule="nonzero"/></clipPath><clipPath id="abedb6be2b"><path d="M 44 32.027344 L 96 32.027344 L 96 85.707031 L 44 85.707031 Z M 44 32.027344 " clip-rule="nonzero"/></clipPath><clipPath id="1837e621cb"><path d="M 36 32.027344 L 48 32.027344 L 48 82 L 36 82 Z M 36 32.027344 " clip-rule="nonzero"/></clipPath><clipPath id="ab6d04b656"><path d="M 29 32.027344 L 60 32.027344 L 60 85.707031 L 29 85.707031 Z M 29 32.027344 " clip-rule="nonzero"/></clipPath><clipPath id="266ea7926e"><path d="M 59 77 L 65 77 L 65 85.707031 L 59 85.707031 Z M 59 77 " clip-rule="nonzero"/></clipPath><clipPath id="51ea863a8e"><path d="M 59 83 L 63 83 L 63 85.707031 L 59 85.707031 Z M 59 83 " clip-rule="nonzero"/></clipPath><clipPath id="6f5c488f14"><path d="M 93 77 L 97.867188 77 L 97.867188 85.707031 L 93 85.707031 Z M 93 77 " clip-rule="nonzero"/></clipPath><clipPath id="68a84443f1"><path d="M 93 83 L 96 83 L 96 85.707031 L 93 85.707031 Z M 93 83 " clip-rule="nonzero"/></clipPath></defs><g clip-path="url(#100e8a78c4)"><path fill="#ffffff" d="M 0 0.105469 L 124.503906 0.105469 L 124.503906 117.898438 L 0 117.898438 Z M 0 0.105469 " fill-opacity="1" fill-rule="nonzero"/></g><g clip-path="url(#bc6992897d)"><g clip-path="url(#67a782725c)"><path fill="#ffc1ad" d="M 0 0.105469 L 124.195312 0.105469 L 124.195312 117.859375 L 0 117.859375 Z M 0 0.105469 " fill-opacity="1" fill-rule="nonzero"/></g></g><g clip-path="url(#63faeb5c46)"><path fill="#ffc1ad" d="M 29.34375 77.265625 L 31.078125 76.605469 L 28.148438 69 C 28.0625 68.792969 27.820312 68.6875 27.613281 68.757812 L 26.660156 69.121094 C 26.449219 69.207031 26.347656 69.449219 26.417969 69.660156 Z M 29.34375 77.265625 " fill-opacity="1" fill-rule="nonzero"/></g><path fill="#ffad80" d="M 28.703125 75.703125 L 30.523438 75.011719 C 30.695312 74.941406 30.78125 74.75 30.714844 74.578125 C 30.644531 74.40625 30.453125 74.320312 30.28125 74.386719 L 28.460938 75.082031 C 28.289062 75.152344 28.199219 75.339844 28.269531 75.515625 C 28.339844 75.6875 28.53125 75.757812 28.703125 75.703125 Z M 28.703125 75.703125 " fill-opacity="1" fill-rule="nonzero"/><path fill="#ffad80" d="M 29.257812 76.898438 L 30.902344 75.84375 C 31.058594 75.738281 31.09375 75.53125 31.007812 75.375 C 30.902344 75.21875 30.695312 75.183594 30.539062 75.273438 L 28.894531 76.328125 C 28.738281 76.433594 28.703125 76.640625 28.789062 76.796875 C 28.894531 76.96875 29.101562 77.003906 29.257812 76.898438 Z M 29.257812 76.898438 " fill-opacity="1" fill-rule="nonzero"/><g clip-path="url(#abedb6be2b)"><path fill="#ff7c54" d="M 44.554688 32.027344 L 81.097656 32.027344 L 95.355469 85.234375 L 59.890625 85.234375 L 55.074219 78.996094 L 44.796875 38.871094 Z M 44.554688 32.027344 " fill-opacity="1" fill-rule="nonzero"/></g><g clip-path="url(#1837e621cb)"><path fill="#ffc1ad" d="M 37.433594 78.597656 L 47.882812 81.179688 L 45.960938 46.875 L 44.695312 33.171875 L 44.539062 32.441406 L 44.332031 32.894531 L 39.046875 52.992188 C 39.046875 52.992188 36.65625 70.246094 36.757812 70.730469 C 36.863281 71.21875 37.296875 78.617188 37.296875 78.617188 Z M 37.433594 78.597656 " fill-opacity="1" fill-rule="nonzero"/></g><g clip-path="url(#ab6d04b656)"><path fill="#ffad80" d="M 29.171875 76.898438 L 44.554688 32.027344 L 59.890625 85.234375 L 46.652344 81.785156 L 44.519531 32.652344 L 38.542969 79.742188 Z M 29.171875 76.898438 " fill-opacity="1" fill-rule="nonzero"/></g><g clip-path="url(#266ea7926e)"><path fill="#ffc1ad" d="M 61.519531 85.925781 L 59.785156 85.269531 L 62.714844 77.664062 C 62.800781 77.453125 63.042969 77.351562 63.25 77.421875 L 64.203125 77.785156 C 64.410156 77.871094 64.515625 78.113281 64.445312 78.320312 Z M 61.519531 85.925781 " fill-opacity="1" fill-rule="nonzero"/></g><path fill="#ffad80" d="M 62.175781 84.367188 L 60.355469 83.675781 C 60.183594 83.605469 60.097656 83.414062 60.167969 83.242188 C 60.234375 83.066406 60.425781 82.980469 60.601562 83.050781 L 62.417969 83.742188 C 62.59375 83.8125 62.679688 84.003906 62.609375 84.175781 C 62.539062 84.351562 62.347656 84.4375 62.175781 84.367188 Z M 62.175781 84.367188 " fill-opacity="1" fill-rule="nonzero"/><g clip-path="url(#51ea863a8e)"><path fill="#ffad80" d="M 61.621094 85.582031 L 59.976562 84.523438 C 59.820312 84.417969 59.785156 84.210938 59.871094 84.054688 C 59.976562 83.898438 60.183594 83.863281 60.339844 83.953125 L 61.984375 85.007812 C 62.140625 85.113281 62.175781 85.320312 62.089844 85.476562 C 61.984375 85.632812 61.777344 85.667969 61.621094 85.582031 Z M 61.621094 85.582031 " fill-opacity="1" fill-rule="nonzero"/></g><g clip-path="url(#6f5c488f14)"><path fill="#ffc1ad" d="M 95.042969 85.925781 L 93.308594 85.269531 L 96.238281 77.664062 C 96.324219 77.453125 96.566406 77.351562 96.777344 77.421875 L 97.726562 77.785156 C 97.9375 77.871094 98.039062 78.113281 97.972656 78.320312 Z M 95.042969 85.925781 " fill-opacity="1" fill-rule="nonzero"/></g><path fill="#ffad80" d="M 95.703125 84.367188 L 93.882812 83.675781 C 93.707031 83.605469 93.621094 83.414062 93.691406 83.242188 C 93.761719 83.066406 93.953125 82.980469 94.125 83.050781 L 95.945312 83.742188 C 96.117188 83.8125 96.203125 84.003906 96.132812 84.175781 C 96.066406 84.351562 95.875 84.4375 95.703125 84.367188 Z M 95.703125 84.367188 " fill-opacity="1" fill-rule="nonzero"/><g clip-path="url(#68a84443f1)"><path fill="#ffad80" d="M 95.128906 85.582031 L 93.484375 84.523438 C 93.328125 84.417969 93.292969 84.210938 93.378906 84.054688 C 93.484375 83.898438 93.691406 83.863281 93.847656 83.953125 L 95.492188 85.007812 C 95.648438 85.113281 95.683594 85.320312 95.597656 85.476562 C 95.492188 85.632812 95.285156 85.667969 95.128906 85.582031 Z M 95.128906 85.582031 " fill-opacity="1" fill-rule="nonzero"/></g></svg>